<svg xmlns="http://www.w3.org/2000/svg" width="64" height="64" viewBox="0 0 64 64">
  <defs>
    <linearGradient id="base" x1="12" y1="5" x2="51" y2="58" gradientUnits="userSpaceOnUse">
      <stop offset="0" stop-color="#ffffff"/>
      <stop offset=".52" stop-color="#f0f7ff"/>
      <stop offset="1" stop-color="#d9eaff"/>
    </linearGradient>
    <linearGradient id="line" x1="19" y1="17" x2="45" y2="41" gradientUnits="userSpaceOnUse">
      <stop offset="0" stop-color="#1f3356"/>
      <stop offset=".58" stop-color="#15243f"/>
      <stop offset="1" stop-color="#0b1324"/>
    </linearGradient>
    <linearGradient id="spark" x1="38.2" y1="42" x2="48.2" y2="52" gradientUnits="userSpaceOnUse">
      <stop offset="0" stop-color="#ff4fd8"/>
      <stop offset=".22" stop-color="#7c4dff"/>
      <stop offset=".44" stop-color="#00c7ff"/>
      <stop offset=".66" stop-color="#34c759"/>
      <stop offset=".84" stop-color="#ffd60a"/>
      <stop offset="1" stop-color="#ff7a1a"/>
    </linearGradient>
  </defs>
  <rect width="64" height="64" rx="14" fill="url(#base)"/>
  <rect x="1.5" y="1.5" width="61" height="61" rx="12.5" fill="none" stroke="#bfd3ef" stroke-width="1.5"/>
  <g transform="translate(32 32) scale(1.12) translate(-32 -32)">
    <rect x="17.5" y="17.3" width="28.5" height="4.6" rx="2.3" fill="url(#line)"/>
    <rect x="17.5" y="25.6" width="28.5" height="4.6" rx="2.3" fill="url(#line)"/>
    <path fill="none" stroke="url(#line)" stroke-linecap="round" stroke-linejoin="round" stroke-width="4.6" d="M19.8 36.2h18.5a4.5 4.5 0 0 1 4.5 4.5v4.6c0 1.3.9 2.2 2.5 2.5"/>
    <path fill="#eff7ff" d="M43.5 39.2c1.3 4.5 3.5 6.8 8 8.3-4.5 1.5-6.7 3.8-8 8.3-1.3-4.5-3.5-6.8-8-8.3 4.5-1.5 6.7-3.8 8-8.3Z"/>
    <path fill="url(#spark)" d="M43.5 40.6c1.1 3.8 2.9 5.8 6.8 6.9-3.9 1.1-5.7 3.1-6.8 6.9-1.1-3.8-2.9-5.8-6.8-6.9 3.9-1.1 5.7-3.1 6.8-6.9Z"/>
  </g>
</svg>
