<svg xmlns="http://www.w3.org/2000/svg" width="1024" height="1024" viewBox="0 0 1024 1024">
  <defs>
    <linearGradient id="base" x1="214" y1="96" x2="814" y2="924" gradientUnits="userSpaceOnUse">
      <stop offset="0" stop-color="#ffffff"/>
      <stop offset=".52" stop-color="#f0f7ff"/>
      <stop offset="1" stop-color="#d9eaff"/>
    </linearGradient>
    <linearGradient id="line" x1="320" y1="278" x2="710" y2="650" gradientUnits="userSpaceOnUse">
      <stop offset="0" stop-color="#1f3356"/>
      <stop offset=".58" stop-color="#15243f"/>
      <stop offset="1" stop-color="#0b1324"/>
    </linearGradient>
    <linearGradient id="spark" x1="614" y1="668" x2="770" y2="824" gradientUnits="userSpaceOnUse">
      <stop offset="0" stop-color="#ff4fd8"/>
      <stop offset=".22" stop-color="#7c4dff"/>
      <stop offset=".44" stop-color="#00c7ff"/>
      <stop offset=".66" stop-color="#34c759"/>
      <stop offset=".84" stop-color="#ffd60a"/>
      <stop offset="1" stop-color="#ff7a1a"/>
    </linearGradient>
    <filter id="soft-shadow" x="220" y="200" width="650" height="690" filterUnits="userSpaceOnUse">
      <feDropShadow dx="0" dy="20" stdDeviation="24" flood-color="#5e789e" flood-opacity=".28"/>
    </filter>
  </defs>
  <rect x="0" y="0" width="1024" height="1024" rx="226" fill="url(#base)"/>
  <rect x="24" y="24" width="976" height="976" rx="204" fill="none" stroke="#bfd3ef" stroke-width="22"/>
  <g filter="url(#soft-shadow)">
    <rect x="284" y="276" width="456" height="74" rx="37" fill="url(#line)"/>
    <rect x="284" y="410" width="456" height="74" rx="37" fill="url(#line)"/>
    <path fill="none" stroke="url(#line)" stroke-linecap="round" stroke-linejoin="round" stroke-width="74" d="M321 581h296c40 0 72 32 72 72v74c0 21 13 35 35 40"/>
    <path fill="#eff7ff" d="M696 628c21 72 56 109 128 132-72 23-107 60-128 132-21-72-56-109-128-132 72-23 107-60 128-132Z"/>
    <path fill="url(#spark)" d="M696 650c17 61 47 92 108 110-61 18-91 49-108 110-17-61-47-92-108-110 61-18 91-49 108-110Z"/>
  </g>
</svg>
